# xmcd
#
# Track frame offsets:
#	183
#	8688
#	19710
#	32498
#	44785
#	55710
#	66320
#	78395
#	91250
#	101325
#	114678
#	125980
#	136145
#	147418
#	157998
#	168865
#	180090
#	191543
#	204095
#	215093
#	226630
#	238055
#
# Disc length: 3356 seconds
#
# Revision: 1
# Processed by: cddbd v1.4PL0 Copyright (c) Steve Scherf et al.
# Submitted via: audiograbber 1.81.02
#
DISCID=1f0d1a16
DTITLE=Willie Nelson - The Complete Liberty Recordings CD1
DYEAR=1900
DGENRE=Country
TTITLE0=Roly Poly
TTITLE1=Lonely Little Mansion
TTITLE2=Am I Blue
TTITLE3=Willingly (Duet With Shirley Collie)
TTITLE4=Second Fiddle
TTITLE5=Let Me Talk To You
TTITLE6=Our Chain Of Love (Duet With Shirley Collie)
TTITLE7=How Long Is Forever
TTITLE8=The Things I Might Have Been
TTITLE9=The Way You See Me
TTITLE10=There's Gonna Be Love At My House Tonight
TTITLE11=You Dream About Me (Duet With Shirley Collie)
TTITLE12=You Took My Happy Away
TTITLE13=Is This My Destiny (Duet With Shirley Collie)
TTITLE14=Hello Walls
TTITLE15=River Boy
TTITLE16=Darkness On The Face Of The Earth
TTITLE17=Mr. Record Man
TTITLE18=I'll Walk Alone
TTITLE19=Take Me As I Am (Or Let Me Go)
TTITLE20=There Goes A Man
TTITLE21=Funny How Time Slips Away
EXTD=Original US release dates: Tr 1: 1961, \nTr 2,4,7-9,11,13,17,23 1962\nTr 5
EXTD=,6,10,16,18,19 1963\nTr12,22 1964     Tr 21 1971     Tr 15,20 1975     Tr3
EXTD=1978
EXTT0=
EXTT1=
EXTT2=
EXTT3=
EXTT4=
EXTT5=
EXTT6=
EXTT7=
EXTT8=
EXTT9=
EXTT10=
EXTT11=
EXTT12=
EXTT13=
EXTT14=
EXTT15=
EXTT16=
EXTT17=
EXTT18=
EXTT19=
EXTT20=
EXTT21=
PLAYORDER=
